name Walk5.mot
datacolumns 19
datarows 17
range 2.64800000 2.66400000
endheader

                time	   L_ground_force_vx	   L_ground_force_vy	   L_ground_force_vz	   L_ground_force_px	   L_ground_force_py	   L_ground_force_pz	   R_ground_force_vx	   R_ground_force_vy	   R_ground_force_vz	   R_ground_force_px	   R_ground_force_py	   R_ground_force_pz	   L_ground_torque_x	   L_ground_torque_y	   L_ground_torque_z	   R_ground_torque_x	   R_ground_torque_y	   R_ground_torque_z	
          2.64800000	          0.00000000	          0.00000000	          0.00000000	          0.00000000	          0.00000000	          0.00000000	        -25.88765566	        712.58205495	        -41.14300370	          0.18487805	          0.00000000	          0.09225061	          0.00000000	          0.00000000	          0.00000000	          0.00000000	          5.56791109	          0.00000000	
          2.64900000	          0.00000000	          0.00000000	          0.00000000	          0.00000000	          0.00000000	          0.00000000	        -25.56643424	        711.89804275	        -41.22448546	          0.18508012	          0.00000000	          0.09231770	          0.00000000	          0.00000000	          0.00000000	          0.00000000	          5.55712902	          0.00000000	
          2.65000000	          0.00000000	          0.00000000	          0.00000000	          0.00000000	          0.00000000	          0.00000000	        -25.24098659	        711.13206034	        -41.31858933	          0.18531169	          0.00000000	          0.09233705	          0.00000000	          0.00000000	          0.00000000	          0.00000000	          5.55687795	          0.00000000	
          2.65100000	          0.00000000	          0.00000000	          0.00000000	          0.00000000	          0.00000000	          0.00000000	        -24.91394313	        710.29339112	        -41.42252796	          0.18558308	          0.00000000	          0.09233699	          0.00000000	          0.00000000	          0.00000000	          0.00000000	          5.55632077	          0.00000000	
          2.65200000	          0.00000000	          0.00000000	          0.00000000	          0.00000000	          0.00000000	          0.00000000	        -24.58936188	        709.39229832	        -41.53634967	          0.18587952	          0.00000000	          0.09234066	          0.00000000	          0.00000000	          0.00000000	          0.00000000	          5.54901964	          0.00000000	
          2.65300000	          0.00000000	          0.00000000	          0.00000000	          0.00000000	          0.00000000	          0.00000000	        -24.27063302	        708.45369772	        -41.65785750	          0.18618416	          0.00000000	          0.09235322	          0.00000000	          0.00000000	          0.00000000	          0.00000000	          5.53151578	          0.00000000	
          2.65400000	          0.00000000	          0.00000000	          0.00000000	          0.00000000	          0.00000000	          0.00000000	        -23.96212144	        707.51527478	        -41.77689730	          0.18648762	          0.00000000	          0.09236596	          0.00000000	          0.00000000	          0.00000000	          0.00000000	          5.50123112	          0.00000000	
          2.65500000	          0.00000000	          0.00000000	          0.00000000	          0.00000000	          0.00000000	          0.00000000	        -23.67060549	        706.60755970	        -41.88224659	          0.18678573	          0.00000000	          0.09236760	          0.00000000	          0.00000000	          0.00000000	          0.00000000	          5.45743981	          0.00000000	
          2.65600000	          0.00000000	          0.00000000	          0.00000000	          0.00000000	          0.00000000	          0.00000000	        -23.39967336	        705.73808777	        -41.97223219	          0.18707692	          0.00000000	          0.09235669	          0.00000000	          0.00000000	          0.00000000	          0.00000000	          5.40202915	          0.00000000	
          2.65700000	          0.00000000	          0.00000000	          0.00000000	          0.00000000	          0.00000000	          0.00000000	        -23.14140343	        704.88698828	        -42.05595102	          0.18735789	          0.00000000	          0.09234758	          0.00000000	          0.00000000	          0.00000000	          0.00000000	          5.34126849	          0.00000000	
          2.65800000	          0.00000000	          0.00000000	          0.00000000	          0.00000000	          0.00000000	          0.00000000	        -22.87365596	        704.02264624	        -42.14756688	          0.18761797	          0.00000000	          0.09235690	          0.00000000	          0.00000000	          0.00000000	          0.00000000	          5.28638464	          0.00000000	
          2.65900000	          0.00000000	          0.00000000	          0.00000000	          0.00000000	          0.00000000	          0.00000000	        -22.57146806	        703.12648582	        -42.25943743	          0.18784330	          0.00000000	          0.09238275	          0.00000000	          0.00000000	          0.00000000	          0.00000000	          5.24691790	          0.00000000	
          2.66000000	          0.00000000	          0.00000000	          0.00000000	          0.00000000	          0.00000000	          0.00000000	        -22.22813892	        702.19976588	        -42.39446467	          0.18803635	          0.00000000	          0.09240924	          0.00000000	          0.00000000	          0.00000000	          0.00000000	          5.22203654	          0.00000000	
          2.66100000	          0.00000000	          0.00000000	          0.00000000	          0.00000000	          0.00000000	          0.00000000	        -21.86249674	        701.25593870	        -42.54301976	          0.18822753	          0.00000000	          0.09243038	          0.00000000	          0.00000000	          0.00000000	          0.00000000	          5.20173666	          0.00000000	
          2.66200000	          0.00000000	          0.00000000	          0.00000000	          0.00000000	          0.00000000	          0.00000000	        -21.50466159	        700.32080998	        -42.69242856	          0.18845914	          0.00000000	          0.09246010	          0.00000000	          0.00000000	          0.00000000	          0.00000000	          5.17706565	          0.00000000	
          2.66300000	          0.00000000	          0.00000000	          0.00000000	          0.00000000	          0.00000000	          0.00000000	        -21.17514968	        699.43636908	        -42.83708212	          0.18876552	          0.00000000	          0.09252676	          0.00000000	          0.00000000	          0.00000000	          0.00000000	          5.14749717	          0.00000000	
          2.66400000	          0.00000000	          0.00000000	          0.00000000	          0.00000000	          0.00000000	          0.00000000	        -20.87441685	        698.63899969	        -42.97451927	          0.18916292	          0.00000000	          0.09265369	          0.00000000	          0.00000000	          0.00000000	          0.00000000	          5.11922199	          0.00000000	
